<?xml version="1.0"?>
<svg xmlns:rdf="http://www.w3.org/1999/02/22-rdf-syntax-ns#" xmlns="http://www.w3.org/2000/svg" xmlns:cc="http://creativecommons.org/ns#" xmlns:dc="http://purl.org/dc/elements/1.1/" xmlns:svg="http://www.w3.org/2000/svg" id="svg2" viewBox="0 0 290.64 297.62" version="1.0">
  <path id="path2311" d="m79.69 296.13c0-0.85-4.623-1.49-10.891-1.49-17.045 0-33.593-6.02-33.706-12.27-0.025-1.44-0.639-2.61-1.363-2.61-3.808 0-6.725-8.8-7.77-23.43-1.044-14.61-1.308-15.5-6.334-21.37-4.984-5.83-11.365-17.42-11.365-20.66-0.0002-0.82-0.9892-1.5-2.198-1.5-3.207 0-7.4399-7-5.6281-9.31 2.2839-2.91 3.4133-11.19 2.0279-14.87-0.6928-1.85-0.9325-5.54-0.5326-8.23 0.6185-4.14 1.0621-4.59 2.9727-3.01 1.9653 1.64 2.113 1.08 1.1829-4.42-0.7082-4.19-0.5226-6.29 0.5561-6.29 0.8904 0 1.6736 1.17 1.7403 2.6 0.0736 1.58 0.9548 0.7 2.2368-2.23 1.163-2.66 3.152-4.84 4.42-4.84s3.006-2.01 3.862-4.46c1.78-5.11 4.241-5.93 4.241-1.42 0 1.67 0.837 2.93 1.86 2.8 1.023-0.14 4.204-0.15 7.068-0.02l5.209 0.22-4.092 3.6c-4.652 4.1-5.116 6.01-1.766 7.3 3.302 1.27 0.923 4.31-2.642 3.37-2.413-0.63-2.805-0.19-2.135 2.37 0.508 1.94-0.103 3.81-1.612 4.91-2.777 2.03-3.802 17.55-1.677 25.4 1.043 3.85 1.853 4.52 4.809 3.95 2.631-0.5 3.362-1.41 2.813-3.51-0.519-1.99 0.033-2.84 1.837-2.84 1.769 0 2.355 0.86 1.866 2.73-0.434 1.66 0.081 2.73 1.315 2.73 2.433 0 2.703-5.68 0.38-8-1.205-1.21-0.805-2.1 1.488-3.33 1.725-0.92 3.136-2.73 3.136-4.02 0-1.68 0.942-2.1 3.348-1.51 3.816 0.95 8.007-1.95 12.672-8.77 2.797-4.08 2.869-4.69 0.723-6.04-2.83-1.79-1.091-5.63 2.009-4.44 1.335 0.51 2.081-0.22 2.081-2.05 0-3.05 2.556-5.42 4.135-3.84 0.529 0.53 0.16 2.24-0.819 3.81-1.834 2.94-1.043 7.43 1.308 7.43 0.731 0 1.329 1.01 1.329 2.23 0 1.28-1.341 2.24-3.136 2.24-2.161 0-2.872 0.68-2.287 2.21 0.498 1.29-0.356 2.85-2.073 3.77-1.607 0.86-2.921 2.62-2.921 3.91 0 1.58-0.93 2.11-2.811 1.62-1.547-0.4-3.723-0.15-4.837 0.55-1.485 0.94-1.529 1.29-0.164 1.31 1.023 0.01 1.86 1.02 1.86 2.25s-1.005 2.23-2.232 2.23c-1.228 0-2.233-0.78-2.233-1.73 0-0.96-0.398-1.34-0.885-0.85-0.487 0.48-0.434 2.94 0.118 5.45 0.696 3.17 1.882 4.57 3.862 4.57 1.572 0 2.858 1.01 2.858 2.24 0 1.26 1.333 2.23 3.074 2.23 1.691 0 4.369 0.69 5.952 1.54 1.984 1.06 2.879 1.06 2.879 0 0-0.85 1.339-1.54 2.976-1.54 1.968 0 2.976 0.99 2.976 2.93 0 2.04 0.703 2.66 2.321 2.04 1.55-0.6 2.596 0.16 3.15 2.28 0.942 3.6 3.166 4.17 4.34 1.11 0.863-2.25-5.404-9.85-8.121-9.85-0.93 0-1.69-1-1.69-2.23s1.005-2.23 2.232-2.23c1.228 0 2.232 0.69 2.232 1.53s1.156 1.98 2.569 2.52 4.43 2.65 6.705 4.67c4.126 3.68 4.129 3.69 1.152 6.47-1.642 1.53-2.985 3.45-2.985 4.28 0 0.9-2.062 1.11-5.225 0.51-3.196-0.6-6.034-0.3-7.308 0.75-2.27 1.89-4.71-0.26-3.156-2.77 1.534-2.49-1.935-3.21-3.939-0.83-5.807 6.9-8.646 8.62-8.646 5.25 0-0.79-1.411-2.75-3.135-4.35-1.723-1.61-2.706-3.62-2.184-4.46 1.278-2.07 5.319-0.39 5.319 2.21 0 3.8 5.557 2.32 6.324-1.68 0.582-3.05 0.229-3.61-1.862-2.94-1.42 0.45-4.32 0.16-6.445-0.65-2.466-0.94-4.184-0.95-4.749-0.04-1.343 2.17-5.173 1.71-5.173-0.63 0-1.13-1.841-2.41-4.092-2.84-4.218-0.81-7.027 0.33-3.72 1.51 1.023 0.36 1.86 1.56 1.86 2.65 0 3.66-3.688 3.36-7.168-0.57l-3.448-3.9 0.942 12.65c0.991 13.32 3.14 30.06 3.535 27.53 0.301-1.93 3.11 2.4 3.14 4.84 0.012 1.02-0.982 1.86-2.21 1.86-1.227 0-2.222 0.83-2.209 1.86 0.03 2.41 2.513 6.32 4.015 6.32 0.644 0 0.986 1.46 0.76 3.24s0.276 3.66 1.116 4.18 1.527-0.1 1.527-1.38c0-1.27 0.63-2.32 1.4-2.32 2.365 0 3.494 3.14 1.754 4.88-1.202 1.21-0.776 2.57 1.58 5.08 3.319 3.54 7.171 4.58 7.171 1.95 0-0.82 1.004-1.49 2.232-1.49 1.278 0 2.232 1.34 2.232 3.13 0 1.96 0.726 2.86 1.922 2.4 1.058-0.4 3.195 0.19 4.749 1.33 3.699 2.71 6.722 2.63 6.722-0.16 0-1.23 0.69-2.24 1.535-2.24 0.844 0 1.92 1.01 2.391 2.24 1.199 3.12 7.708 2.93 7.441-0.22-0.114-1.34 0.631-2.74 1.654-3.1 1.102-0.39 1.86 0.61 1.86 2.45 0 2.43 0.934 3.1 4.325 3.1 3.592 0 4.193-0.51 3.546-2.98-0.541-2.07-0.045-2.97 1.628-2.97 1.323 0 2.406 0.91 2.406 2.02 0 1.36 1.224 1.79 3.702 1.32 2.037-0.39 3.365-1.26 2.952-1.92-1.236-2 2.403-3.38 4.193-1.59 2.4 2.4 6.55 2.03 7.59-0.68 0.61-1.59 1.89-2.02 3.99-1.35 3.94 1.25 11.8-1.95 11.8-4.8 0-1.63 1.09-1.93 4.38-1.21 3.69 0.81 5.32 0.08 10.41-4.72 5.99-5.63 8.3-11.66 3.81-9.93-1.57 0.6-2.23-0.13-2.23-2.44 0-2.32 0.66-3.04 2.23-2.44 1.54 0.59 2.23-0.1 2.23-2.21 0-1.82-1.21-3.39-2.97-3.85-3.73-0.97-3.89-4.31-0.26-5.26 2.28-0.6 2.68-2.08 2.44-8.98-0.25-6.97 0.15-8.39 2.49-9 1.93-0.5 2.48-1.52 1.78-3.32-0.83-2.18-0.38-2.44 2.88-1.62 3.8 0.95 7.27-1.19 3.8-2.35-0.98-0.32-1.34-1.69-0.81-3.08 0.62-1.61 1.85-2.14 3.5-1.51 2 0.77 2.33 0.4 1.52-1.7-0.56-1.47-0.19-3.69 0.83-4.92 1.61-1.94 1.22-2.09-2.95-1.18-3.83 0.84-4.81 0.58-4.81-1.29 0-1.29 0.68-2.35 1.51-2.35 0.94 0 0.8-1.82-0.37-4.84-1.04-2.66-1.81-8.85-1.71-13.76s-0.54-9.84-1.43-10.95c-1.2-1.51-0.96-2.5 0.94-3.89 3.15-2.3 3.29-5.06 0.32-6.2-3.49-1.34-2.67-4.1 2.97-9.91 5.92-6.09 6.55-8.49 2.24-8.49-1.66 0-2.98-0.99-2.98-2.23 0-2.65 3.96-3.02 4.81-0.45 0.37 1.12 0.96 0.84 1.57-0.74 0.53-1.39 0.32-2.53-0.47-2.53-0.8 0-1.44-0.84-1.43-1.86 0.01-2.01 8.79-8.56 11.47-8.56 0.9 0 1.28-1.34 0.85-2.97-0.98-3.77 1.44-3.77 9.24 0 3.28 1.58 7.29 2.87 8.93 2.87 2.63 0 2.54-0.25-0.74-2.13-2.05-1.17-4.91-2.15-6.36-2.18s-3.35-1.61-4.21-3.52c-1.35-2.94-2.35-3.33-6.68-2.6-3.92 0.66-5.71 2.06-7.74 6.07-1.45 2.86-3.46 5.04-4.45 4.83-1-0.2-1.73 0.14-1.64 0.75 0.1 0.61 0.1 1.93 0 2.93-0.24 2.48-4.64 0.61-4.64-1.97 0-1.14-1.17-2.13-2.6-2.19s-4.08-0.38-5.88-0.72-3.66 0.02-4.14 0.79c-1.52 2.46-5.38-0.12-4.47-2.99 0.66-2.08 0.21-2.51-2.02-1.92-3.14 0.82-5.67-1.71-3.23-3.22 3-1.86 1.51-3.84-1.63-2.16-1.92 1.03-3.67 1.15-4.51 0.3-1.68-1.68-0.01-6.65 1.85-5.5 0.74 0.46 1.34 0.12 1.34-0.75 0-2.09-0.83-1.99-6.03 0.7-2.42 1.24-4.39 3.25-4.39 4.46s-1.01 2.19-2.23 2.19c-1.23 0-2.24-1.07-2.24-2.39 0-1.56-0.81-2.08-2.34-1.49-1.29 0.49-3.32-0.08-4.51-1.27-1.69-1.69-2.96-1.82-5.72-0.56-3.072 1.4-4.127 1.01-7.956-2.9-2.427-2.49-6.51-5.6-9.072-6.93-2.561-1.32-5.481-3.72-6.487-5.34-1.006-1.607-2.308-2.925-2.892-2.925s-2.736-1.675-4.783-3.721c-4.555-4.555-7.638-5.032-5.392-0.834 1.772 3.31 0.055 5.035-3.613 3.627-2.011-0.772-2.269-0.247-1.461 2.973 0.838 3.34 0.5 3.91-2.316 3.91-2.355 0-3.046 0.65-2.418 2.29 0.505 1.31-0.084 2.65-1.385 3.15-1.244 0.48-3.242 3.21-4.439 6.08-2.545 6.09-2.766 8.36-0.688 7.08 0.818-0.51 1.488 0.53 1.488 2.3 0 2.26-0.672 2.97-2.232 2.37-1.6-0.62-2.233 0.15-2.233 2.69 0 1.95-0.837 3.93-1.86 4.4s0.37 0.46 3.094-0.02c4.2-0.74 4.911-0.45 4.665 1.88-0.493 4.69-0.025 5.41 2.268 3.51 1.801-1.5 2.398-1.37 3.193 0.71 0.539 1.4 0.217 3.02-0.714 3.59-1.202 0.75-0.824 2.76 1.3 6.92 1.647 3.23 3.483 5.71 4.081 5.5 3.124-1.07 3.618 1.33 0.715 3.48-1.842 1.35-3.349 3.39-3.349 4.52 0 1.12-1.076 2.05-2.391 2.05-1.54 0-2.079 0.81-1.513 2.29 1.334 3.47-3.299 4.44-7.997 1.67-3.931-2.33-4.166-2.3-4.903 0.52-0.426 1.63-1.507 2.96-2.402 2.96-2.375 0-1.989-3.8 0.605-5.95 3.234-2.69 2.737-5.96-0.905-5.96-2.644 0-2.983-0.61-2.157-3.91 0.812-3.23 0.555-3.74-1.492-2.95-1.667 0.63-2.231 0.31-1.73-1 0.41-1.06-0.185-3.21-1.322-4.76-2.835-3.88-2.671-7.27 0.297-6.13 2.02 0.77 2.212 0 1.321-5.27-0.986-5.83-0.863-6.13 2.219-5.32 2.777 0.73 3.796-0.29 6.849-6.85 4.235-9.1 4.341-10.68 1.315-19.59-1.266-3.73-1.899-7.428-1.408-8.222 0.491-0.795 1.137-6.08 1.435-11.745 0.298-5.664 1.417-11.865 2.486-13.778s2.092-5.041 2.274-6.95c0.385-4.03 3.053-7.689 5.607-7.689 0.977 0 3.814-2.176 6.305-4.836 7.57-8.085 13.945-13.154 15.406-12.252 0.762 0.471 2.823 0.087 4.581-0.854 2.504-1.34 3.465-1.276 4.438 0.298 1.481 2.397 11.319-6.673 21.158-19.509 8.81-11.491 19.45-20.816 21.46-18.808 0.47 0.4727-0.92 2.2568-3.09 3.9646-2.17 1.7077-3.94 3.5586-3.94 4.1134 0 0.554 3.18 1.199 7.06 1.432 33.04 1.982 89.8 19.652 112.89 35.143 10.39 6.972 21.37 19.144 23.84 26.43 0.93 2.732 3.75 10.659 6.28 17.616s5.37 15.666 6.31 19.346l1.71 6.7 3.91-8.04c2.6-5.34 3.34-8.24 2.21-8.63-1.07-0.372-1.43-2.687-0.96-6.147 0.53-3.96-0.14-7.032-2.32-10.715-1.69-2.84-5.19-8.995-7.78-13.678-5.25-9.482-17.44-22.669-29.2-31.578-8.81-6.673-25.34-15.693-28.79-15.704-1.27-0.003-2.94-0.589-3.72-1.3-1.8-1.644-39.16-14.159-49.06-16.434-4.11-0.9439-12.91-1.8613-19.57-2.0389-13.66-0.3648-15.43-2.5551-2.06-2.5551 25.12-0.000015088 82.3 18.838 102.32 33.705 9.65 7.169 20.5 16.093 21.04 17.301 0.28 0.636 3.54 4.654 7.24 8.929 7.37 8.495 14.96 23.08 16.29 31.278 0.86 5.302-2.2 17.017-6.69 25.607-1.29 2.45-2.16 5.1-1.93 5.89s-0.6 2.17-1.83 3.07c-3.23 2.36-18.49 33.56-21.71 44.36-4.15 13.98-4.72 18.58-2.47 19.92 2.82 1.67 3.72 8.43 1.4 10.6-1.09 1.01-1.97 2.93-1.97 4.27 0 1.97 0.71 1.77 3.72-1.06 4.93-4.63 4.73-2.35-0.38 4.32-4.56 5.97-6.02 12.41-2.5 11.06 3.38-1.3 2.64 3.79-1.91 13.2-3.85 7.97-5.63 9.67-13.07 12.44-2.66 0.99-2.7 1.17-0.37 1.73 1.43 0.34 2.6 1.17 2.6 1.84 0 0.66 1.14 1.12 2.54 1 2.09-0.17 2.58 1.24 2.75 7.91 0.24 9.69-3.69 14.95-11.17 14.95-2.5 0-4.54 0.67-4.54 1.49s0.67 1.49 1.49 1.49c3.12 0 1.29 2.52-3.48 4.79-3 1.43-5.78 1.88-7 1.12-2.76-1.71-4.91-0.14-2.99 2.18 1.97 2.37-8.17 7.3-13.48 6.55-1.98-0.28-4.7 0.65-6.16 2.1-3.26 3.26-7.61 3.34-10.75 0.19-1.82-1.81-3.91-2.17-8.46-1.44-3.8 0.61-6.83 0.32-8.14-0.77-1.15-0.96-3.59-1.81-5.41-1.91-2.26-0.11-3.32-1.1-3.32-3.11 0-2.11-1.02-2.95-3.62-2.97-2.83-0.03-3.9-1.1-4.88-4.87-0.7-2.66-2.22-4.84-3.38-4.84-3.01 0-9.7 3.22-9.7 4.68 0 0.67-2.77 2.62-6.15 4.35-6.4 3.27-31.91 12.16-35.15 12.25-1.02 0.03-1.86 0.63-1.86 1.34s-3.345 0.85-7.437 0.31c-5.118-0.68-7.441-0.47-7.441 0.69 0 0.92-1.339 1.68-2.976 1.68s-2.976-0.67-2.976-1.49zm165.98-32.84c1.53-2.47 0.16-2.81-1.98-0.49-1.05 1.14-1.26 2.08-0.46 2.08 0.81 0 1.9-0.71 2.44-1.59zm-9.73-11.8c0-0.82-0.96-1.49-2.14-1.49s-2.56 0.67-3.07 1.49c-0.5 0.82 0.46 1.49 2.15 1.49 1.68 0 3.06-0.67 3.06-1.49zm-84.28-15.63c0.47-1.22 0.2-2.23-0.59-2.23s-1.44 1.01-1.44 2.23c0 1.23 0.26 2.24 0.59 2.24 0.32 0 0.97-1.01 1.44-2.24zm13.6-15.62c0.5-0.82-0.13-1.49-1.4-1.49-1.28 0-2.32 0.67-2.32 1.49s0.63 1.49 1.4 1.49 1.81-0.67 2.32-1.49zm-3.72-20.83c0-0.82-0.67-1.49-1.49-1.49s-1.49 0.67-1.49 1.49c0 0.81 0.67 1.48 1.49 1.48s1.49-0.67 1.49-1.48zm85.46-5.65c-0.62-2.21-1.02-4.53-0.89-5.14 0.14-0.62-0.42-1.12-1.24-1.12-2.59 0-2.26 8.38 0.46 11.7 2.25 2.74 3.15-0.18 1.67-5.44zm7.97-0.51c-0.37-1.11-1.05-0.44-1.57 1.57-0.65 2.48-0.46 3.06 0.65 1.95 0.86-0.86 1.28-2.45 0.92-3.52zm-3.77-18.55c-0.49-13.55 6.06-31.26 11.88-32.13 1.69-0.25 4.26-2.13 5.72-4.18 2.47-3.47 2.5-4.76 0.52-19.34-1.16-8.6-3.08-17.64-4.24-20.091-1.17-2.456-2.94-7.143-3.93-10.417s-3.42-8.888-5.4-12.476c-9.04-16.379-14.06-20.932-30.7-27.859-5.06-2.107-14.22-6.354-20.36-9.438-6.42-3.224-15.59-6.388-21.58-7.442-5.73-1.008-13.09-3.032-16.37-4.496-8.95-4.007-35.24-8.655-43.65-7.72-1.91 0.213-4.35-0.338-5.42-1.225-1.49-1.234-3.09-0.118-6.82 4.76-2.69 3.505-7.25 8.883-10.14 11.952-6.489 6.891-4.225 7.291 9.71 1.715 7.43-2.971 11.11-3.651 15.88-2.934 3.42 0.513 8.13 0.935 10.46 0.938 2.92 0.004 4.48 0.891 4.98 2.831 0.41 1.553 1.61 2.491 2.68 2.082 1.06-0.408 2.38-0.027 2.92 0.847s2.25 1.59 3.81 1.59 3.61 1.437 4.55 3.194c1.39 2.597 1.26 3.446-0.69 4.538-2.54 1.419-3.37 7.149-1.04 7.149 3.06 0 6.08-1.93 6.08-3.88 0-2.663 1.57-2.61 8.84 0.299 3.26 1.304 6.33 3.648 6.83 5.208 0.49 1.56 2.21 2.837 3.82 2.837s3.35 1.172 3.86 2.604c0.52 1.433 5.55 7.299 11.19 13.036 5.63 5.738 11.62 12.607 13.3 15.266 2.87 4.527 2.89 4.778 0.3 3.962-1.61-0.507-0.59 1.053 2.45 3.744 3.38 2.996 5.76 6.826 6.76 10.906 1.18 4.74 2.36 6.4 4.84 6.76 2.02 0.29 3.63 1.87 4.19 4.09 0.5 1.99 1.76 3.62 2.81 3.62s1.87 0.84 1.84 1.86c-0.2 5.25 0.52 6.93 2.63 6.12 1.55-0.6 2.23 0.1 2.23 2.28 0 1.72 0.75 3.13 1.66 3.13 1.12 0 1.46 3.15 1.06 9.54-0.51 7.89-0.29 9.11 1.26 7.06 1.69-2.21 1.88-2.13 1.93 0.84 0.02 1.81-1.3 4.01-2.93 4.88-3.99 2.14-3.78 5.64 0.37 6.23 2.9 0.41 3.28 1.22 2.86 6.05-0.52 5.94 1.46 7.33 4.22 2.98 1.38-2.18 1.54-1.88 0.97 1.76-0.82 5.28 0.27 8.62 2.55 7.82 1.07-0.38 1.54-4.28 1.31-10.85zm-199.04-8.03c0.506-0.82 0.25-1.49-0.569-1.49-0.818 0-1.902 0.67-2.407 1.49-0.506 0.82-0.25 1.49 0.568 1.49s1.902-0.67 2.408-1.49zm-1.86-15.87c-1.023-0.41-1.86-2.15-1.86-3.85 0-1.71-0.423-2.68-0.94-2.16s-2.191 0.27-3.72-0.55c-1.53-0.82-2.781-0.99-2.781-0.37 0 1.54 7.848 7.82 9.673 7.75 0.818-0.04 0.651-0.41-0.372-0.82zm125.19-12.03c-1.25-5.23-1.75-5.74-3.69-3.8-1.12 1.12-1.01 2.51 0.39 4.74 2.75 4.41 4.47 3.92 3.3-0.94zm13.78-39.815c0.47-1.229 0.43-3.967-0.11-6.083-0.79-3.171-1.34-3.531-3.13-2.047-2.96 2.458-2.88 10.365 0.11 10.365 1.25 0 2.66-1.01 3.13-2.235zm-15.15-14.133c1.06 0 2.33-2.009 2.82-4.465 0.67-3.38 1.71-4.469 4.28-4.487 4.27-0.028 7.98-2.235 5.91-3.516-0.84-0.514-2.52-0.55-3.75-0.079-1.56 0.6-2.8-0.734-4.15-4.459-2.31-6.374-4.93-7.101-3.59-0.993 0.55 2.479 0.28 4.738-0.62 5.296-0.87 0.535-1.58 2.183-1.58 3.661s-1.49 4.582-3.31 6.896c-2.83 3.603-2.92 4.06-0.62 3.177 1.48-0.567 3.55-1.031 4.61-1.031zm-3.66-9.939c0-0.556-0.8-3.237-1.79-5.958-1.32-3.651-2.46-4.733-4.35-4.132-1.55 0.492-3.15-0.237-4.05-1.843-1.83-3.262-2.55-2.579-3.89 3.642-0.66 3.11-0.46 4.837 0.57 4.837 0.89 0 1.69-1.172 1.78-2.604 0.17-2.481 0.21-2.481 0.85 0 0.38 1.432 1.56 2.604 2.63 2.604 1.06 0 2.77 1.004 3.79 2.232 1.91 2.304 4.46 3.002 4.46 1.222zm-21.57-17.612c0-4.909-3.14-6.04-5.66-2.042-2.06 3.263-0.16 7.607 3.05 6.989 1.79-0.345 2.61-1.894 2.61-4.947zm-50.599-12.628c0.506-0.818-0.085-1.488-1.313-1.488-1.227 0-2.646 0.67-3.151 1.488-0.506 0.818 0.084 1.488 1.312 1.488s2.646-0.67 3.152-1.488zm-37.696 240.13c0.294-1.53 1.195-2.61 2.002-2.4 2.163 0.55 1.785 3.74-0.535 4.51-1.304 0.43-1.815-0.3-1.467-2.11zm10.166-1.29c0-1.22 1.005-2.23 2.232-2.23 1.228 0 2.232 1.01 2.232 2.23 0 1.23-1.004 2.24-2.232 2.24-1.227 0-2.232-1.01-2.232-2.24zm11.905-1.61c0-1.29 0.795-2.09 1.767-1.77 2.759 0.92 3.217 4.13 0.589 4.13-1.296 0-2.356-1.06-2.356-2.36zm11.099 0.77c-1.369-2.22 0.219-3.42 3.068-2.33 1.315 0.51 1.974 1.59 1.464 2.42-1.206 1.95-3.296 1.91-4.532-0.09zm-51.278-2.13c0-1.23 1.005-2.24 2.232-2.24 1.228 0 2.232 1.01 2.232 2.24 0 1.22-1.004 2.23-2.232 2.23-1.227 0-2.232-1.01-2.232-2.23zm62.503 0c0-1.23 1-2.24 2.23-2.24s2.23 1.01 2.23 2.24c0 1.22-1 2.23-2.23 2.23s-2.23-1.01-2.23-2.23zm11.9-0.92c0-1.69 0.79-2.79 1.77-2.46 2.75 0.92 3.07 3.66 0.53 4.63-1.61 0.62-2.3-0.03-2.3-2.17zm-63.179 0.28c-0.47-0.77-0.175-1.81 0.657-2.32 1.776-1.1 4.488 0.29 4.488 2.3 0 1.81-4.027 1.82-5.145 0.02zm12.049 0.35c-1.676-1.68-1.02-3.43 1.281-3.43 1.227 0 2.232 0.63 2.232 1.4 0 1.87-2.324 3.22-3.513 2.03zm10.953-2.57c0-1.29 1.061-2.35 2.357-2.35 2.627 0 2.17 3.2-0.589 4.12-0.972 0.33-1.768-0.47-1.768-1.77zm10.742-1.09c0.773-2.32 3.963-2.7 4.511-0.54 0.205 0.81-0.877 1.71-2.403 2-1.808 0.35-2.543-0.16-2.108-1.46zm12.404 0.36c-1.548-2.51 0.641-5.22 2.621-3.24 1.16 1.17 1.16 2.07 0 3.24-1.17 1.16-1.9 1.16-2.621 0zm-51.915-1.13c-1.713-1.71-1.084-3.47 1.24-3.47 1.227 0 2.232 1.01 2.232 2.23 0 2.33-1.76 2.96-3.472 1.24zm62.316-0.39c-1.1-1.78 1.7-3.54 3.68-2.32 1.66 1.03 0.57 3.71-1.51 3.71-0.72 0-1.7-0.63-2.17-1.39zm11.86-0.08c-1.1-1.77 0.29-4.49 2.3-4.49 1.81 0 1.82 4.03 0.02 5.15-0.77 0.47-1.81 0.17-2.32-0.66zm-63.264-2.25c0-1.23 1.005-2.24 2.232-2.24 1.228 0 2.233 1.01 2.233 2.24 0 1.22-1.005 2.23-2.233 2.23-1.227 0-2.232-1.01-2.232-2.23zm11.041 0.55c-1.269-2.06 1.644-4.89 3.711-3.61 0.889 0.55 1.617 1.56 1.617 2.24 0 1.98-4.272 3.07-5.328 1.37zm63.643-0.93c0.28-1.43 1.16-2.6 1.95-2.6 0.8 0 1.68 1.17 1.95 2.6 0.32 1.63-0.41 2.61-1.95 2.61-1.53 0-2.26-0.98-1.95-2.61zm-51.37 0.13c-1.712-1.71-1.084-3.47 1.24-3.47 1.228 0 2.232 1 2.232 2.23 0 2.32-1.76 2.95-3.472 1.24zm10.913-2.73c0-1.23 1.004-2.23 2.232-2.23 1.227 0 2.232 1 2.232 2.23s-1.005 2.23-2.232 2.23c-1.228 0-2.232-1-2.232-2.23zm11.877 0.73c-1.74-1.08-1.8-1.73-0.33-3.2 2.22-2.22 5.25 0.11 3.6 2.78-0.7 1.14-1.86 1.29-3.27 0.42zm-63.961-2.22c0-1.23 1.005-2.23 2.232-2.23 1.228 0 2.232 1 2.232 2.23s-1.004 2.23-2.232 2.23c-1.227 0-2.232-1-2.232-2.23zm12.5-0.37c-0.518-1.84-2.066-3.35-3.439-3.35s-5.388-2.69-8.922-5.99c-5.656-5.27-6.463-6.83-6.741-13.02-0.184-4.09 0.579-8.43 1.826-10.38 1.891-2.95 1.871-3.35-0.173-3.35-3.315 0-4.209-2.17-2.616-6.37 2.294-6.03 5.577-5.99 13.973 0.17 10.023 7.34 12.471 8.2 14.422 5.03 1.432-2.33 1.764-2.26 3.941 0.8 1.308 1.84 3.013 3.35 3.789 3.35 0.777 0 4.546 2.58 8.376 5.74 8.499 7 11.413 8.13 13.756 5.3 1.435-1.72 1.298-2.72-0.671-4.9-2.718-3-1.822-7.63 1.478-7.63 1.14 0 2.073 1.01 2.073 2.23 0 1.23-0.752 2.24-1.671 2.24-1.148 0-1.087 0.7 0.196 2.24 1.652 2 2.088 1.95 3.796-0.37 1.835-2.49 1.983-2.48 2.998 0.14 0.63 1.64 0.33 3.21-0.763 3.88-1.363 0.84-1.228 1.36 0.527 2.04 1.296 0.49 2.356 0.25 2.356-0.54 0-2.81 4.13-1.4 4.94 1.68 0.45 1.72 1.37 2.79 2.05 2.37s2.9 0.16 4.93 1.28c2.04 1.13 3.08 2.08 2.31 2.1-0.77 0.03-0.1 1.01 1.48 2.18 2.79 2.05 2.79 2.17 0.14 3.2-1.65 0.64-3.22 0.32-3.91-0.8-0.91-1.48-1.39-1.47-2.34 0.07-0.7 1.13-0.47 2.17 0.55 2.51 2.42 0.81 2.22 4.8-0.24 4.8-1.26 0-2.06-2-2.19-5.47-0.29-7.62-2.71-9.59-6.34-5.14-2.51 3.06-3.21 3.26-5.386 1.49-2.194-1.79-2.379-1.71-1.505 0.62 1.376 3.67-3.294 5.37-5.233 1.91-1.343-2.4-1.605-2.36-3.62 0.51-1.195 1.71-3.474 3.11-5.065 3.11-1.899 0-2.891 1.02-2.891 2.97 0 3.23-3.83 4.14-4.826 1.15-0.444-1.33-1.737-1.09-4.748 0.88-2.993 1.96-4.587 2.26-5.764 1.09-2.387-2.39-5.636-1.99-7.911 0.97-1.867 2.44-2.063 2.39-2.942-0.74zm4.822-7.44c1.929-2.48 2.1-2.48 3.586 0 1.914 3.19 5.667 3.4 6.828 0.37 0.962-2.5 4.489-3.02 5.25-0.76 0.298 0.88 2.11 0.63 4.525-0.62 2.215-1.15 5.229-2.36 6.696-2.69 1.468-0.32-1.877-0.46-7.431-0.31-5.555 0.15-10.528 0.7-11.051 1.23-0.523 0.52-2.339-0.36-4.037-1.95-1.698-1.6-3.756-2.95-4.575-3.01-0.818-0.06-2.743-0.51-4.278-0.99-1.591-0.51-3.323-0.03-4.03 1.12-0.964 1.56-1.638 1.61-3.025 0.22-1.375-1.38-1.381-2.27-0.024-3.91 1.384-1.66 1.275-2.3-0.51-2.99-1.248-0.48-2.27-0.22-2.27 0.57s-1.004 1.44-2.232 1.44c-1.381 0-2.232 1.4-2.232 3.68 0 2.56 0.638 3.42 2.118 2.86 1.213-0.47 2.825 0.51 3.773 2.28 0.91 1.7 2.635 3.09 3.834 3.09s2.18 0.67 2.18 1.49c0 2.44 4.728 1.68 6.905-1.12zm-6.905-4.09c0-1.23 1.004-2.23 2.232-2.23s2.232 1 2.232 2.23c0 1.22-1.004 2.23-2.232 2.23s-2.232-1.01-2.232-2.23zm29.76-4.84c0.001-0.21-6.862-3.74-15.251-7.85s-16.444-8.3-17.9-9.3c-2.145-1.48-2.909-1.4-4.032 0.4-2.928 4.7 8.145 13.66 19.301 15.63 2.829 0.5 5.451 1.21 5.826 1.59 0.683 0.68 12.051 0.24 12.056-0.47zm16.371-2.79c0-1.97-0.404-2.07-2.232-0.56-1.228 1.02-2.232 2.11-2.232 2.42s1.004 0.56 2.232 0.56c1.227 0 2.232-1.09 2.232-2.42zm17.853 19.53c0-1.23 1.01-2.23 2.24-2.23 1.22 0 2.23 1 2.23 2.23s-1.01 2.23-2.23 2.23c-1.23 0-2.24-1-2.24-2.23zm11.23-0.64c-0.47-0.76-0.18-1.81 0.65-2.32 1.78-1.1 4.49 0.3 4.49 2.31 0 1.81-4.02 1.82-5.14 0.01zm11.85-0.08c-1.09-1.77 0.3-4.49 2.31-4.49 1.81 0 1.82 4.03 0.01 5.15-0.76 0.47-1.8 0.17-2.32-0.66zm-51.1-2.45c0.294-1.53 1.195-2.61 2.003-2.41 2.162 0.55 1.785 3.74-0.535 4.51-1.304 0.44-1.816-0.3-1.468-2.1zm-51.589-0.55c-1.214-1.96 0.565-4.75 2.335-3.65 1.807 1.11 1.795 5.14-0.015 5.14-0.77 0-1.814-0.67-2.32-1.49zm61.756-0.74c0-1.53 0.975-2.26 2.603-1.95 1.43 0.27 2.61 1.15 2.61 1.95 0 0.79-1.18 1.67-2.61 1.95-1.628 0.31-2.603-0.42-2.603-1.95zm23.293-1.43c-0.61-1.61 0.04-2.29 2.18-2.29 1.69 0 2.79 0.78 2.46 1.76-0.92 2.76-3.66 3.07-4.64 0.53zm10.93-1.55c0-1.23 1.01-2.23 2.24-2.23 1.22 0 2.23 1 2.23 2.23s-1.01 2.23-2.23 2.23c-1.23 0-2.24-1-2.24-2.23zm-28.27-2.97c0-1.23 1-2.24 2.23-2.24s2.23 1.01 2.23 2.24c0 1.22-1 2.23-2.23 2.23s-2.23-1.01-2.23-2.23zm23.14-0.62c-1.54-2.5 0.65-5.21 2.62-3.23 1.17 1.16 1.17 2.07 0 3.23-1.16 1.17-1.9 1.17-2.62 0zm10.41-1.51c-1.11-1.78 1.69-3.55 3.68-2.32 1.66 1.02 0.57 3.7-1.52 3.7-0.72 0-1.69-0.62-2.16-1.38zm-17.18-5.32c0-1.22 1-2.23 2.23-2.23s2.23 1.01 2.23 2.23c0 1.23-1 2.24-2.23 2.24s-2.23-1.01-2.23-2.24zm10.79-1.11c0.34-1.02 1.51-1.86 2.6-1.86s2.26 0.84 2.61 1.86c0.36 1.11-0.69 1.86-2.61 1.86s-2.97-0.75-2.6-1.86zm-100.08-3.44c0-1.27 0.67-1.9 1.488-1.4 0.819 0.51 1.489 1.55 1.489 2.32s-0.67 1.4-1.489 1.4c-0.818 0-1.488-1.04-1.488-2.32zm83.338-0.65c0-1.92 0.75-2.98 1.86-2.61 1.02 0.34 1.86 1.52 1.86 2.61s-0.84 2.26-1.86 2.6c-1.11 0.37-1.86-0.69-1.86-2.6zm10.41-0.75c0-1.53 0.98-2.26 2.61-1.95 1.43 0.28 2.6 1.16 2.6 1.95 0 0.8-1.17 1.68-2.6 1.95-1.63 0.32-2.61-0.41-2.61-1.95zm12.86 1.2c-1.78-1.78-0.96-4.92 1.28-4.92 1.23 0 2.23 0.97 2.23 2.15 0 2.48-2.12 4.16-3.51 2.77zm-52.228-3.33c-0.471-0.76-0.176-1.8 0.656-2.32 1.776-1.09 4.488 0.3 4.488 2.31 0 1.81-4.027 1.82-5.144 0.01zm22.548-1.05c-1.39-1.39 0.29-3.51 2.77-3.51 1.18 0 2.15 1 2.15 2.23 0 2.24-3.14 3.06-4.92 1.28zm11.63-0.51c-1.1-1.78 0.29-4.49 2.3-4.49 1.81 0 1.83 4.03 0.02 5.14-0.76 0.47-1.81 0.18-2.32-0.65zm11.15-2.26c0-1.23 1-2.23 2.23-2.23 1.22 0 2.23 1 2.23 2.23s-1.01 2.23-2.23 2.23c-1.23 0-2.23-1-2.23-2.23zm-51.425-0.87c-1.533-2.48 1.916-5.33 3.969-3.28 1.717 1.72 0.642 4.89-1.656 4.89-0.722 0-1.763-0.72-2.313-1.61zm62.205-0.25c0.34-1.02 1.52-1.86 2.61-1.86s2.26 0.84 2.6 1.86c0.37 1.11-0.68 1.86-2.6 1.86s-2.98-0.75-2.61-1.86zm-111.98-2.69c0-1.68 0.67-2.65 1.488-2.14 0.819 0.5 1.488 1.88 1.488 3.06s-0.669 2.15-1.488 2.15c-0.818 0-1.488-1.38-1.488-3.07zm73.076 1.03c-1.32-1.6-1.35-2.44-0.1-3.21 2.43-1.5 5.44 1.83 3.45 3.82-1.08 1.08-2.1 0.89-3.35-0.61zm10.26-1.68c0-1.23 1-2.24 2.23-2.24s2.23 1.01 2.23 2.24c0 1.22-1 2.23-2.23 2.23s-2.23-1.01-2.23-2.23zm11.9-1.62c0-1.29 0.8-2.09 1.77-1.76 2.76 0.92 3.22 4.12 0.59 4.12-1.3 0-2.36-1.06-2.36-2.36zm11.16 0.87c-1.08-1.75 0.33-4.46 2.32-4.46 0.77 0 1.4 1.34 1.4 2.97 0 3.14-2.16 4.01-3.72 1.49zm-63.241-2.23c0-1.53 0.975-2.26 2.604-1.95 1.433 0.28 2.604 1.15 2.604 1.95s-1.171 1.67-2.604 1.95c-1.629 0.31-2.604-0.42-2.604-1.95zm12.514 0.18c-1.261-3.28 0.416-4.96 2.69-2.69 1.342 1.35 1.347 2.18 0.024 3.5-1.324 1.33-1.97 1.13-2.714-0.81zm10.49-1.02c-1.369-2.22 0.219-3.42 3.068-2.33 1.315 0.5 1.969 1.59 1.464 2.41-1.206 1.96-3.296 1.92-4.532-0.08zm11.227-2.14c0-1.22 1-2.23 2.23-2.23s2.23 1.01 2.23 2.23c0 1.23-1 2.24-2.23 2.24s-2.23-1.01-2.23-2.24zm11.9-0.74c0-1.92 0.75-2.97 1.86-2.6 1.02 0.34 1.86 1.51 1.86 2.6s-0.84 2.26-1.86 2.6c-1.11 0.37-1.86-0.68-1.86-2.6zm10.42-0.74c0-1.54 0.97-2.27 2.6-1.95 1.43 0.27 2.61 1.15 2.61 1.95 0 0.79-1.18 1.67-2.61 1.94-1.63 0.32-2.6-0.41-2.6-1.94zm11.9-0.75c0-1.92 0.76-2.97 1.86-2.6 1.02 0.34 1.86 1.51 1.86 2.6s-0.84 2.26-1.86 2.61c-1.1 0.36-1.86-0.69-1.86-2.61zm-50.581 0.02c-1.752-1.09-1.835-1.77-0.397-3.21 2.167-2.16 3.826-0.95 3.12 2.29-0.359 1.65-1.142 1.91-2.723 0.92zm-62.513-2.25c0-1.37 0.837-2.2 1.86-1.86 2.107 0.7 1.875 3.09-0.372 3.84-0.818 0.28-1.488-0.62-1.488-1.98zm72.914 0c0-1.23 1.01-2.23 2.24-2.23 1.22 0 2.23 1 2.23 2.23s-1.01 2.23-2.23 2.23c-1.23 0-2.24-1-2.24-2.23zm11.23-0.64c-0.47-0.76-0.18-1.81 0.65-2.32 1.78-1.1 4.49 0.29 4.49 2.3 0 1.81-4.03 1.83-5.14 0.02zm11.84-0.1c-1.21-1.97 0.56-4.76 2.33-3.66 1.81 1.12 1.8 5.14-0.01 5.14-0.77 0-1.82-0.67-2.32-1.48zm11.16-2.24c0-1.22 1-2.23 2.23-2.23s2.23 1.01 2.23 2.23c0 1.23-1 2.24-2.23 2.24s-2.23-1.01-2.23-2.24zm11.16 0.75c-1.09-1.76 0.32-4.47 2.32-4.47 0.77 0 1.4 1.34 1.4 2.98 0 3.14-2.16 4-3.72 1.49zm-51.339-3.72c0-1.23 1.004-2.24 2.232-2.24 1.227 0 2.232 1.01 2.232 2.24 0 1.22-1.005 2.23-2.232 2.23-1.228 0-2.232-1.01-2.232-2.23zm11.349 1.04c-0.41-0.65-0.14-2.15 0.59-3.33 1.01-1.63 1.75-1.73 3.05-0.43 0.94 0.94 1.27 2.44 0.72 3.33-1.18 1.9-3.32 2.11-4.36 0.43zm10.97-2.53c0-1.23 1.01-2.23 2.23-2.23 1.23 0 2.24 1 2.24 2.23s-1.01 2.23-2.24 2.23c-1.22 0-2.23-1-2.23-2.23zm11.91 0.74c-1.76-1.08-1.83-1.74-0.36-3.21 1.43-1.44 2.24-1.45 3.63-0.06 2.41 2.41-0.29 5.12-3.27 3.27zm11.41-0.99c-1.72-1.71-1.09-3.47 1.24-3.47 1.22 0 2.23 1 2.23 2.23 0 2.32-1.76 2.95-3.47 1.24zm11.86-0.04c-1.78-1.78-0.96-4.92 1.28-4.92 1.23 0 2.23 0.97 2.23 2.14 0 2.49-2.12 4.17-3.51 2.78zm-63.168-3.06c0.275-1.43 1.152-2.6 1.948-2.6s1.673 1.17 1.949 2.6c0.314 1.63-0.416 2.6-1.949 2.6-1.532 0-2.262-0.97-1.948-2.6zm10.941-0.27c-1.101-1.78 1.697-3.54 3.677-2.32 1.67 1.03 0.58 3.71-1.51 3.71-0.72 0-1.7-0.63-2.167-1.39zm11.347-1.05c0.29-1.52 1.2-2.6 2-2.4 2.17 0.55 1.79 3.74-0.53 4.51-1.31 0.44-1.82-0.3-1.47-2.11zm-51.67-0.67c-1.533-2.48 1.916-5.33 3.968-3.27 1.718 1.71 0.643 4.89-1.656 4.89-0.721 0-1.762-0.73-2.312-1.62zm62.86 0.66c-1.94-1.94-1.01-3.51 2.08-3.51 1.73 0 2.84 0.78 2.51 1.77-0.73 2.18-3.21 3.12-4.59 1.74zm11.83-0.07c-1.78-1.78-0.96-4.92 1.28-4.92 1.23 0 2.24 0.96 2.24 2.14 0 2.49-2.13 4.16-3.52 2.78zm10.21-1.96c-0.51-0.82 0.15-1.91 1.46-2.41 2.85-1.1 4.44 0.11 3.07 2.32-1.24 2-3.33 2.04-4.53 0.09zm-61.754-2.22c0-1.23 1.004-2.23 2.232-2.23s2.232 1 2.232 2.23-1.004 2.23-2.232 2.23-2.232-1-2.232-2.23zm11.241 0.87c-1.548-2.5 0.641-5.21 2.617-3.23 1.165 1.16 1.165 2.07 0 3.23-1.165 1.17-1.897 1.17-2.617 0zm11.083-2.36c0-1.23 1-2.23 2.23-2.23s2.23 1 2.23 2.23-1 2.23-2.23 2.23-2.23-1-2.23-2.23zm11.9 0.75c-1.76-1.09-1.83-1.74-0.36-3.22 1.44-1.43 2.25-1.45 3.64-0.06 2.41 2.42-0.29 5.12-3.28 3.28zm-63.303-1.59c-1.37-2.22 0.218-3.42 3.067-2.33 1.315 0.51 1.974 1.59 1.465 2.42-1.207 1.95-3.297 1.91-4.532-0.09zm12.173 0.55c-1.778-1.78-0.961-4.92 1.281-4.92 1.227 0 2.232 0.97 2.232 2.15 0 2.48-2.124 4.16-3.513 2.77zm61.83-1.57c0.28-1.43 1.15-2.6 1.95-2.6s1.67 1.17 1.95 2.6c0.31 1.63-0.42 2.61-1.95 2.61s-2.26-0.98-1.95-2.61zm-51.701-0.5c-1.533-2.48 1.916-5.33 3.969-3.27 1.717 1.71 0.642 4.89-1.656 4.89-0.722 0-1.763-0.73-2.313-1.62zm62.641 0.23c-0.47-0.76-0.17-1.8 0.66-2.32 1.78-1.09 4.49 0.3 4.49 2.31 0 1.81-4.03 1.82-5.15 0.01zm11.84-0.1c-1.21-1.96 0.57-4.75 2.34-3.66 1.81 1.12 1.8 5.15-0.02 5.15-0.77 0-1.81-0.67-2.32-1.49zm-125-1.49c-1.214-1.96 0.566-4.75 2.335-3.66 1.807 1.12 1.796 5.15-0.015 5.15-0.77 0-1.814-0.67-2.32-1.49zm61.756-0.74c0-1.23 1.005-2.23 2.232-2.23 1.228 0 2.232 1 2.232 2.23s-1.004 2.23-2.232 2.23c-1.227 0-2.232-1-2.232-2.23zm12.514 0.18c-1.261-3.28 0.416-4.96 2.686-2.69 1.35 1.34 1.35 2.18 0.03 3.5-1.33 1.32-1.97 1.13-2.716-0.81zm4.726-5.59c-4.07-3.58-6.663-7-6.209-8.18 1.225-3.19-1.814-2.38-3.602 0.96-1.263 2.36-1.115 3.19 0.692 3.88 2.508 0.96 3.208 6.52 0.821 6.52-2.336 0-10.465-9.16-9.506-10.71 0.476-0.77 1.802-1.04 2.947-0.6 1.47 0.56 2.081-0.4 2.081-3.26 0-2.59 1.214-4.83 3.349-6.19l3.348-2.12-3.61-0.88c-4.627-1.13-5.782-4.48-1.893-5.5 1.648-0.43 3.347-2.13 3.777-3.77 0.832-3.18 3.955-2.4 3.955 0.99 0 2.76 11.87 4.75 13.41 2.24 1.71-2.76 4.71-0.15 3.65 3.19-0.8 2.52-0.4 2.78 2.91 1.95 2.22-0.56 3.84-0.33 3.84 0.53 0 0.82 3.52 3.72 7.82 6.45 4.29 2.72 8.66 6.1 9.7 7.52 1.04 1.41 2.88 3.56 4.09 4.77s2.2 2.91 2.2 3.79c0 3.04-4.21 1.58-7.82-2.71-3.22-3.83-12.83-10.08-13.57-8.83-0.16 0.27-1.22 1.7-2.36 3.19-1.9 2.48-1.72 2.66 2.28 2.23 3.84-0.41 4.31-0.04 3.95 3.16-0.51 4.59-0.42 4.51-6.85 5.56-4.35 0.7-5.39 0.4-5.39-1.55 0-1.34-0.78-2.43-1.74-2.43-0.95 0-1.29 0.44-0.75 0.98 1.06 1.06-1.64 4.97-3.43 4.97-0.61 0-4.25-2.77-8.09-6.15zm16.35-8.73c0-2.11-0.99-2.98-3.4-2.98-1.87 0-3.4-0.56-3.4-1.26 0-0.69-2.68-2.31-5.96-3.6-3.27-1.28-5.95-1.72-5.95-0.97s0.97 1.37 2.16 1.37 2.69 0.87 3.35 1.94c1.07 1.74 10.43 8.05 12.4 8.35 0.44 0.07 0.8-1.21 0.8-2.85zm-60.872 12.4c-1.712-1.71-1.083-3.47 1.24-3.47 1.228 0 2.233 1 2.233 2.23 0 2.33-1.76 2.95-3.473 1.24zm72.592-0.62c-0.55-0.89-0.42-2.21 0.29-2.92 1.76-1.76 5.64 0.8 4.35 2.88-1.3 2.1-3.36 2.12-4.64 0.04zm-62.795-1.73c0.341-1.03 1.513-1.86 2.604-1.86s2.263 0.83 2.604 1.86c0.369 1.1-0.686 1.86-2.604 1.86s-2.973-0.76-2.604-1.86zm12.357 0.5c-1.548-2.51 0.642-5.21 2.618-3.24 1.164 1.17 1.164 2.07 0 3.24-1.165 1.16-1.898 1.16-2.618 0zm-52.244-1.75c-1.533-2.48 1.916-5.33 3.968-3.27 1.718 1.71 0.643 4.89-1.656 4.89-0.721 0-1.762-0.73-2.312-1.62zm34.226-2.98c-0.549-0.89-0.226-2.39 0.719-3.33 1.298-1.3 2.042-1.2 3.046 0.43 1.418 2.29 0.703 4.52-1.452 4.52-0.722 0-1.763-0.73-2.313-1.62zm11.241-2.1c0-1.23 1.005-2.23 2.232-2.23 1.228 0 2.233 1 2.233 2.23s-1.005 2.23-2.233 2.23c-1.227 0-2.232-1-2.232-2.23zm73.945 1.28c-1.38-1.39 0.29-3.51 2.78-3.51 1.18 0 2.14 1 2.14 2.23 0 2.24-3.14 3.06-4.92 1.28zm-125.22-1.92c-1.1-1.78 1.699-3.55 3.681-2.32 1.665 1.03 0.572 3.7-1.512 3.7-0.722 0-1.698-0.62-2.169-1.38zm12.049 0.35c-1.778-1.78-0.961-4.92 1.281-4.92 1.227 0 2.232 0.97 2.232 2.15 0 2.48-2.124 4.16-3.513 2.77zm10.203-1.95c-0.51-0.83 0.149-1.91 1.464-2.42 2.85-1.09 4.437 0.11 3.068 2.33-1.236 2-3.326 2.04-4.532 0.09zm23.681-2.04c-1.261-3.28 0.416-4.96 2.69-2.69 1.342 1.34 1.347 2.18 0.024 3.5-1.324 1.32-1.97 1.13-2.714-0.81zm72.968 0.43c-1.53-2.48 1.92-5.33 3.97-3.27 1.72 1.71 0.64 4.89-1.65 4.89-0.73 0-1.77-0.73-2.32-1.62zm-65.906-3.66c-3.885-3.87-3.049-7.25 1.441-5.82 2.514 0.79 2.778 0.4 1.946-2.92-0.748-2.98-0.407-3.84 1.523-3.84 1.725 0 2.344 1.03 2.021 3.35-0.378 2.72 0.161 3.26 2.883 2.88 2.328-0.32 3.348 0.3 3.348 2.04 0 1.76-0.872 2.27-2.974 1.72-3.244-0.85-5.457 1.13-2.978 2.66 1.897 1.17 0.473 3.78-1.948 3.56-0.975-0.08-3.343-1.72-5.262-3.63zm-47.85 0.07c0-1.23 1.005-2.23 2.232-2.23 1.228 0 2.233 1 2.233 2.23s-1.005 2.23-2.233 2.23c-1.227 0-2.232-1-2.232-2.23zm11.225-0.64c-1.101-1.78 1.698-3.55 3.681-2.32 1.664 1.03 0.571 3.7-1.513 3.7-0.722 0-1.698-0.62-2.168-1.38zm11.38-1.22c0.276-1.43 1.153-2.6 1.949-2.6s1.673 1.17 1.949 2.6c0.313 1.63-0.416 2.6-1.949 2.6s-2.263-0.97-1.949-2.6zm85.351-0.27c-1.11-1.78 1.69-3.54 3.68-2.32 1.66 1.03 0.57 3.71-1.52 3.71-0.72 0-1.69-0.63-2.16-1.39zm12.04 0.35c-1.77-1.77-0.96-4.92 1.28-4.92 1.23 0 2.24 0.97 2.24 2.15 0 2.48-2.13 4.16-3.52 2.77zm-114.85-3.53c-1.369-2.21 0.219-3.42 3.068-2.32 1.315 0.5 1.974 1.59 1.464 2.41-1.206 1.95-3.296 1.91-4.532-0.09zm11.222-2.13c0-1.23 1.005-2.23 2.232-2.23 1.228 0 2.233 1 2.233 2.23s-1.005 2.23-2.233 2.23c-1.227 0-2.232-1-2.232-2.23zm86.417 0.81c-1.98-1.22-1.03-4.53 1.31-4.53 1.7 0 3.19 4.2 1.8 5.06-0.62 0.38-2.02 0.15-3.11-0.53zm-63.103-1.06c-1.712-1.71-1.084-3.47 1.24-3.47 1.228 0 2.232 1 2.232 2.23 0 2.33-1.76 2.95-3.472 1.24zm73.413-1.24c0-1.23 1-2.23 2.23-2.23s2.23 1 2.23 2.23-1 2.23-2.23 2.23-2.23-1-2.23-2.23zm-17.86-4.46c0-1.54 0.98-2.27 2.61-1.95 1.43 0.27 2.6 1.15 2.6 1.95 0 0.79-1.17 1.67-2.6 1.95-1.63 0.31-2.61-0.42-2.61-1.95zm12.52 0.18c-1.26-3.28 0.41-4.96 2.69-2.69 1.34 1.34 1.34 2.18 0.02 3.5s-1.97 1.13-2.71-0.81zm-62.829-2.04c0.275-1.43 1.152-2.61 1.948-2.61s1.673 1.18 1.949 2.61c0.314 1.63-0.416 2.6-1.949 2.6-1.532 0-2.262-0.97-1.948-2.6zm73.299 0.98c-0.55-0.89-0.23-2.39 0.72-3.33 1.29-1.3 2.04-1.2 3.04 0.43 1.42 2.29 0.71 4.52-1.45 4.52-0.72 0-1.76-0.73-2.31-1.62zm-62.841-1.58c0.773-2.32 3.963-2.7 4.511-0.54 0.205 0.81-0.877 1.71-2.403 2-1.808 0.35-2.543-0.16-2.108-1.46zm-50.92-2.01c0-1.22 1.004-2.23 2.232-2.23 1.227 0 2.232 1.01 2.232 2.23 0 1.23-1.005 2.24-2.232 2.24-1.228 0-2.232-1.01-2.232-2.24zm73.721 0.85c-0.47-0.76-0.17-1.81 0.66-2.32 1.78-1.1 4.49 0.3 4.49 2.31 0 1.81-4.03 1.82-5.15 0.01zm11.44-1.87c0.92-2.76 4.12-3.22 4.12-0.59 0 1.3-1.06 2.36-2.35 2.36-1.3 0-2.09-0.8-1.77-1.77zm11.57-0.46c0-1.23 1-2.24 2.23-2.24 1.22 0 2.23 1.01 2.23 2.24 0 1.22-1.01 2.23-2.23 2.23-1.23 0-2.23-1.01-2.23-2.23zm-62.505-1.62c0-2.62 3.203-2.17 4.123 0.59 0.324 0.97-0.471 1.77-1.767 1.77s-2.356-1.06-2.356-2.36zm11.161 0.87c-1.603-2.59 0.772-4.8 3.092-2.88 1.146 0.95 1.716 2.32 1.268 3.05-1.086 1.76-3.222 1.67-4.36-0.17zm62.094-0.28c0.92-2.76 4.13-3.21 4.13-0.59 0 1.3-1.06 2.36-2.36 2.36s-2.09-0.8-1.77-1.77zm-50.934-1.95c0-1.23 1.005-2.23 2.232-2.23 1.228 0 2.233 1 2.233 2.23s-1.005 2.23-2.233 2.23c-1.227 0-2.232-1-2.232-2.23zm10.794-1.12c0.34-1.02 1.51-1.86 2.6-1.86s2.26 0.84 2.6 1.86c0.37 1.11-0.68 1.86-2.6 1.86s-2.97-0.75-2.6-1.86zm11.53-0.37c0-1.23 1-2.23 2.23-2.23s2.23 1 2.23 2.23-1 2.23-2.23 2.23-2.23-1-2.23-2.23zm11.9-1.61c0-1.3 0.8-2.09 1.77-1.77 2.76 0.92 3.22 4.12 0.59 4.12-1.3 0-2.36-1.06-2.36-2.35zm11.16 0.87c-1.21-1.97 0.57-4.75 2.34-3.66 1.81 1.12 1.79 5.14-0.02 5.14-0.77 0-1.81-0.66-2.32-1.48zm-63.241-2.24c0-1.22 1.005-2.23 2.232-2.23 1.228 0 2.232 1.01 2.232 2.23 0 1.23-1.004 2.24-2.232 2.24-1.227 0-2.232-1.01-2.232-2.24zm11.905-0.74c0-1.92 0.754-2.97 1.86-2.6 1.023 0.34 1.86 1.51 1.86 2.6s-0.837 2.26-1.86 2.6c-1.106 0.37-1.86-0.68-1.86-2.6zm62.496 0.74c0-1.22 1.01-2.23 2.24-2.23 1.22 0 2.23 1.01 2.23 2.23 0 1.23-1.01 2.24-2.23 2.24-1.23 0-2.24-1.01-2.24-2.24zm-51.397-0.84c-1.369-2.21 0.219-3.42 3.068-2.33 1.315 0.51 1.969 1.6 1.464 2.42-1.206 1.95-3.296 1.91-4.532-0.09zm11.227-2.13c0-1.23 1-2.23 2.23-2.23s2.23 1 2.23 2.23-1 2.23-2.23 2.23-2.23-1-2.23-2.23zm11.44 1.27c-1.95-1.94-1.02-3.5 2.07-3.5 1.73 0 2.84 0.78 2.51 1.76-0.72 2.18-3.21 3.12-4.58 1.74zm-51.373-2.96c0.294-1.53 1.195-2.61 2.002-2.4 2.163 0.54 1.785 3.73-0.534 4.51-1.304 0.43-1.816-0.3-1.468-2.11zm62.253 0.2c0-1.23 1-2.23 2.23-2.23s2.23 1 2.23 2.23-1 2.23-2.23 2.23-2.23-1-2.23-2.23zm12.15-0.2c0.3-1.53 1.2-2.61 2-2.4 2.17 0.54 1.79 3.73-0.53 4.51-1.3 0.43-1.82-0.3-1.47-2.11zm-63.204-0.01c-1.389-1.39 0.289-3.51 2.776-3.51 1.179 0 2.144 1 2.144 2.23 0 2.24-3.142 3.06-4.92 1.28zm73.374-1.28c0-1.53 0.97-2.26 2.6-1.95 1.43 0.28 2.61 1.16 2.61 1.95 0 0.8-1.18 1.68-2.61 1.95-1.63 0.31-2.6-0.42-2.6-1.95zm-62.161-1.02c0.92-2.76 4.124-3.22 4.124-0.59 0 1.3-1.061 2.36-2.357 2.36-1.295 0-2.091-0.8-1.767-1.77zm11.561-0.47c0-1.22 1.01-2.23 2.24-2.23 1.22 0 2.23 1.01 2.23 2.23 0 1.23-1.01 2.24-2.23 2.24-1.23 0-2.24-1.01-2.24-2.24zm10.79-1.11c0.34-1.03 1.51-1.86 2.61-1.86 1.09 0 2.26 0.83 2.6 1.86 0.37 1.1-0.69 1.86-2.6 1.86-1.92 0-2.98-0.76-2.61-1.86zm12.28 0.37c-1.21-1.96 0.56-4.75 2.33-3.66 1.81 1.12 1.8 5.15-0.01 5.15-0.77 0-1.82-0.67-2.32-1.49zm-63.246-2.23c0-1.23 1.005-2.23 2.232-2.23 1.228 0 2.233 1 2.233 2.23s-1.005 2.23-2.233 2.23c-1.227 0-2.232-1-2.232-2.23zm11.307 0.98c-1.147-1.86 1.628-5.16 3.408-4.06 0.91 0.56 1.654 1.58 1.654 2.26 0 1.7-4.202 3.19-5.062 1.8zm62.639 0.3c-1.39-1.39 0.29-3.51 2.78-3.51 1.18 0 2.14 1 2.14 2.23 0 2.24-3.14 3.06-4.92 1.28zm11.62-0.54c-1.09-1.75 0.32-4.46 2.32-4.46 0.77 0 1.4 1.34 1.4 2.97 0 3.14-2.16 4.01-3.72 1.49zm-63.244-2.23c0-1.23 1.004-2.23 2.232-2.23s2.232 1 2.232 2.23-1.004 2.23-2.232 2.23-2.232-1-2.232-2.23zm11.905-1.61c0-1.3 0.795-2.09 1.767-1.77 2.759 0.92 3.217 4.12 0.589 4.12-1.296 0-2.356-1.06-2.356-2.35zm11.099 0.77c-1.37-2.22 0.22-3.42 3.07-2.33 1.31 0.5 1.97 1.59 1.46 2.42-1.2 1.95-3.29 1.91-4.53-0.09zm11.22-2.14c0-1.22 1.01-2.23 2.23-2.23 1.23 0 2.24 1.01 2.24 2.23 0 1.23-1.01 2.24-2.24 2.24-1.22 0-2.23-1.01-2.23-2.24zm11.91 0.75c-1.76-1.09-1.83-1.74-0.36-3.21 1.43-1.44 2.24-1.46 3.63-0.07 2.41 2.42-0.29 5.12-3.27 3.28zm-63.184-1.39c-0.471-0.76-0.175-1.8 0.656-2.32 1.776-1.1 4.489 0.3 4.489 2.31 0 1.81-4.028 1.82-5.145 0.01zm11.856-0.08c-1.097-1.77 0.296-4.48 2.305-4.48 1.811 0 1.823 4.02 0.015 5.14-0.761 0.47-1.805 0.18-2.32-0.66zm61.738-0.76c0-1.23 1.01-2.24 2.24-2.24 1.22 0 2.23 1.01 2.23 2.24 0 1.22-1.01 2.23-2.23 2.23-1.23 0-2.24-1.01-2.24-2.23zm11.91-0.92c0-1.7 0.78-2.79 1.77-2.46 2.75 0.91 3.06 3.66 0.52 4.63-1.6 0.62-2.29-0.03-2.29-2.17zm-62.502-0.45c0-1.29 1.061-2.35 2.356-2.35 1.296 0 2.091 0.79 1.768 1.76-0.92 2.76-4.124 3.22-4.124 0.59zm10.742-1.1c0.77-2.32 3.96-2.69 4.51-0.53 0.21 0.81-0.88 1.71-2.4 2-1.81 0.35-2.545-0.16-2.11-1.47zm11.83-0.71c0.29-1.53 1.2-2.61 2-2.4 2.17 0.54 1.79 3.73-0.53 4.51-1.31 0.43-1.82-0.3-1.47-2.11zm-50.846-0.54c-1.758-1.09-1.831-1.75-0.359-3.22 1.437-1.43 2.244-1.45 3.633-0.06 2.414 2.42-0.29 5.12-3.274 3.28zm61.816 0.1c-0.47-0.76-0.17-1.81 0.66-2.32 1.78-1.1 4.49 0.29 4.49 2.3 0 1.81-4.03 1.83-5.15 0.02zm12.09 0.39c-1.81-1.81-1.02-4.96 1.24-4.96 1.24 0 2.24 1.32 2.24 2.98 0 2.96-1.59 3.87-3.48 1.98zm-63.489-2.73c0-1.22 1.005-2.23 2.232-2.23 1.228 0 2.232 1.01 2.232 2.23 0 1.23-1.004 2.24-2.232 2.24-1.227 0-2.232-1.01-2.232-2.24zm73.949 1.28c-1.39-1.39 0.29-3.51 2.78-3.51 1.18 0 2.14 1.01 2.14 2.23 0 2.24-3.14 3.06-4.92 1.28zm-62.725-1.92c-0.471-0.76-0.175-1.8 0.657-2.32 1.775-1.1 4.488 0.3 4.488 2.31 0 1.81-4.028 1.82-5.145 0.01zm11.842-0.1c-1.214-1.96 0.565-4.75 2.335-3.66 1.807 1.12 1.795 5.15-0.015 5.15-0.771 0-1.815-0.67-2.32-1.49zm11.163-2.23c0-1.23 1-2.24 2.23-2.24s2.23 1.01 2.23 2.24c0 1.22-1 2.23-2.23 2.23s-2.23-1.01-2.23-2.23zm11.08 0.61c-1.54-2.48 1.91-5.33 3.97-3.27 1.71 1.71 0.64 4.89-1.66 4.89-0.72 0-1.76-0.73-2.31-1.62zm-62.359-1.25c-1.1-1.79 1.699-3.55 3.681-2.32 1.665 1.02 0.572 3.7-1.512 3.7-0.722 0-1.698-0.62-2.169-1.38zm12.049 0.35c-1.778-1.78-0.961-4.92 1.281-4.92 1.227 0 2.232 0.96 2.232 2.14 0 2.49-2.124 4.17-3.513 2.78zm61.55-1.2c0-1.23 1-2.23 2.23-2.23s2.23 1 2.23 2.23-1 2.23-2.23 2.23-2.23-1-2.23-2.23zm-51.347-0.76c-0.51-0.82 0.149-1.91 1.464-2.41 2.85-1.1 4.437 0.11 3.068 2.33-1.236 2-3.326 2.04-4.532 0.08zm12.119 0.47c-1.779-1.78-0.961-4.92 1.28-4.92 1.228 0 2.232 0.97 2.232 2.14 0 2.49-2.123 4.17-3.512 2.78zm11.203-2.89c0.294-1.52 1.195-2.61 2.005-2.4 2.16 0.55 1.78 3.74-0.54 4.51-1.301 0.43-1.813-0.3-1.465-2.11zm10.165-1.29c0-1.53 0.98-2.26 2.61-1.94 1.43 0.27 2.6 1.15 2.6 1.94 0 0.8-1.17 1.68-2.6 1.95-1.63 0.32-2.61-0.41-2.61-1.95zm12.52 0.19c-1.27-3.29 0.41-4.96 2.69-2.69 1.34 1.34 1.34 2.17 0.02 3.5-1.32 1.32-1.97 1.13-2.71-0.81zm-63.114-1.67c0-1.23 1.005-2.24 2.232-2.24 1.228 0 2.233 1.01 2.233 2.24 0 1.22-1.005 2.23-2.233 2.23-1.227 0-2.232-1.01-2.232-2.23zm11.349-0.05c-0.925-2.41 1.337-4.29 3.532-2.93 2.126 1.31 1.838 3.27-0.621 4.21-1.16 0.45-2.47-0.13-2.911-1.28zm10.973-1.44c0-1.23 1.004-2.23 2.232-2.23s2.232 1 2.232 2.23-1.004 2.23-2.232 2.23-2.232-1-2.232-2.23zm11.905-1.61c0-1.3 0.795-2.09 1.767-1.77 2.759 0.92 3.217 4.12 0.589 4.12-1.296 0-2.356-1.06-2.356-2.35zm11.177 0.89c-1.1-1.78 0.29-4.49 2.3-4.49 1.81 0 1.83 4.03 0.02 5.14-0.76 0.48-1.81 0.18-2.32-0.65zm-50.747-2.07c-1.261-3.29 0.416-4.97 2.689-2.69 1.343 1.34 1.348 2.17 0.024 3.49-1.323 1.33-1.969 1.14-2.713-0.8zm10.49-1.03c-1.369-2.22 0.219-3.42 3.068-2.33 1.315 0.51 1.974 1.59 1.464 2.42-1.206 1.95-3.296 1.91-4.532-0.09zm11.222-2.13c0-1.23 1.005-2.24 2.232-2.24 1.228 0 2.233 1.01 2.233 2.24 0 1.22-1.005 2.23-2.233 2.23-1.227 0-2.232-1.01-2.232-2.23zm11.347 1.04c-0.403-0.65-0.136-2.15 0.594-3.33 1.004-1.63 1.748-1.73 3.046-0.44 0.945 0.95 1.268 2.45 0.719 3.34-1.176 1.9-3.319 2.11-4.359 0.43zm-28.495-3.33c-1.5-2.43 1.832-5.44 3.819-3.45 1.076 1.07 0.888 2.1-0.612 3.34-1.599 1.33-2.435 1.36-3.207 0.11zm11.479-2.55c0.276-1.43 1.153-2.6 1.949-2.6s1.673 1.17 1.949 2.6c0.314 1.63-0.416 2.6-1.949 2.6s-2.262-0.97-1.949-2.6zm10.941-0.27c-1.1-1.78 1.699-3.54 3.681-2.32 1.664 1.03 0.572 3.71-1.512 3.71-0.722 0-1.698-0.63-2.169-1.39zm-17.176-5.31c0-1.23 1.004-2.23 2.232-2.23 1.227 0 2.232 1 2.232 2.23s-1.005 2.23-2.232 2.23c-1.228 0-2.232-1-2.232-2.23zm11.08 0.61c-1.533-2.48 1.916-5.32 3.968-3.27 1.718 1.72 0.643 4.89-1.656 4.89-0.721 0-1.762-0.73-2.312-1.62zm-6.616-6.56c0-1.536 0.975-2.266 2.604-1.952 1.432 0.276 2.604 1.153 2.604 1.952 0 0.79-1.172 1.67-2.604 1.95-1.629 0.31-2.604-0.42-2.604-1.95z"/>
  <metadata>
    <rdf:RDF>
      <cc:Work>
        <dc:format>image/svg+xml</dc:format>
        <dc:type rdf:resource="http://purl.org/dc/dcmitype/StillImage"/>
        <cc:license rdf:resource="http://creativecommons.org/licenses/publicdomain/"/>
        <dc:publisher>
          <cc:Agent rdf:about="http://openclipart.org/">
            <dc:title>Openclipart</dc:title>
          </cc:Agent>
        </dc:publisher>
        <dc:title>Nurse head</dc:title>
        <dc:date>2009-03-23T12:14:10</dc:date>
        <dc:description>Source: http://commons.wikimedia.org/wiki/File:Cap_(PSF).jpg </dc:description>
        <dc:source>http://openclipart.org/detail/22913/nurse-head-by-papapishu</dc:source>
        <dc:creator>
          <cc:Agent>
            <dc:title>papapishu</dc:title>
          </cc:Agent>
        </dc:creator>
        <dc:subject>
          <rdf:Bag>
            <rdf:li>black and white</rdf:li>
            <rdf:li>cap</rdf:li>
            <rdf:li>clip art</rdf:li>
            <rdf:li>clipart</rdf:li>
            <rdf:li>contour</rdf:li>
            <rdf:li>externalsource</rdf:li>
            <rdf:li>head</rdf:li>
            <rdf:li>health</rdf:li>
            <rdf:li>image</rdf:li>
            <rdf:li>line art</rdf:li>
            <rdf:li>media</rdf:li>
            <rdf:li>medical</rdf:li>
            <rdf:li>nurse</rdf:li>
            <rdf:li>outline</rdf:li>
            <rdf:li>people</rdf:li>
            <rdf:li>png</rdf:li>
            <rdf:li>psf</rdf:li>
            <rdf:li>public domain</rdf:li>
            <rdf:li>svg</rdf:li>
            <rdf:li>wikimedia commons</rdf:li>
            <rdf:li>woman</rdf:li>
          </rdf:Bag>
        </dc:subject>
      </cc:Work>
      <cc:License rdf:about="http://creativecommons.org/licenses/publicdomain/">
        <cc:permits rdf:resource="http://creativecommons.org/ns#Reproduction"/>
        <cc:permits rdf:resource="http://creativecommons.org/ns#Distribution"/>
        <cc:permits rdf:resource="http://creativecommons.org/ns#DerivativeWorks"/>
      </cc:License>
    </rdf:RDF>
  </metadata>
</svg>
